<svg width="100" height="100" viewBox="0 0 100 100" fill="none" xmlns="http://www.w3.org/2000/svg">
<rect width="100" height="100" rx="50" fill="#6E32C9"/>
<path d="M22.3995 54.4646H49.8475C47.1481 54.1664 45.8621 52.434 45.7811 52.3426C45.7811 52.3426 45.7242 52.2685 45.638 52.1961C45.5587 52.1288 45.2915 51.972 45.2915 51.972C45.2295 51.941 45.164 51.9082 45.1002 51.8737C44.8003 51.7169 44.44 51.5617 44.0435 51.4238C44.0401 51.4221 44.0366 51.4221 44.0332 51.4204C43.5815 51.2497 43.1161 51.1377 42.6369 51.0687C42.3835 51.0291 42.1318 51.0032 41.8819 50.9963C41.8715 50.9963 41.8612 50.9963 41.8491 50.9946C41.7491 50.9911 41.6474 50.9877 41.544 50.9842C41.5354 50.986 41.5251 50.9842 41.5147 50.9842C40.5908 50.9498 40.0547 50.8653 39.5961 50.2103C39.5961 50.2103 39.6047 50.212 39.622 50.2137L39.653 50.2154C39.8461 50.2292 40.5097 50.2189 41.2079 49.5811C41.3354 49.4656 41.4733 49.3725 41.6147 49.2967C41.6147 49.2967 41.6147 49.2967 41.6164 49.2967C42.1077 49.1053 42.6335 48.9829 43.2626 49.057C43.2678 49.0588 43.2713 49.0588 43.2713 49.0588C43.0144 48.6985 42.7231 48.6002 42.3732 48.5675C41.7974 48.5123 41.2596 48.7037 40.7011 48.7554C38.4291 49.4845 36.2175 49.3846 34.0817 48.3451C33.9765 48.2951 33.8835 48.2193 33.7973 48.1434C33.6404 48.0021 33.6335 47.9073 33.899 47.89C34.804 47.8297 35.6797 47.6435 36.5485 47.4143C37.731 46.9523 38.7808 46.2128 40.0891 46.0197C40.5718 45.949 41.051 45.9301 41.5009 46.1593C42.006 46.1817 41.7043 45.8835 41.4923 45.787C40.2736 45.1837 39.0342 45.2699 37.7827 45.6388C37.7758 45.6405 37.7672 45.6439 37.7568 45.6474C37.731 45.6543 37.7034 45.6629 37.6775 45.6698C36.9466 45.8973 36.2295 46.1559 35.4883 46.3455C34.9867 46.4748 34.473 46.5696 33.9421 46.6024C32.0218 46.7144 30.31 46.2473 28.831 45.1113C27.826 44.4338 27.1245 43.534 26.5366 42.5428C26.5815 42.5307 26.628 42.5032 26.6452 42.5135C26.6452 42.5135 26.6452 42.5152 26.647 42.5152C26.678 42.5445 27.0159 42.8393 27.7347 43.0375C27.7364 43.0393 27.7381 43.0393 27.7398 43.0393C28.3759 43.2168 29.3154 43.322 30.6048 43.0996C30.6134 43.0996 30.6203 43.0979 30.6307 43.0962C31.2995 42.9807 31.9804 42.7635 32.6906 42.517C32.6958 42.5152 32.7009 42.5135 32.7061 42.5135C33.5128 42.2343 34.3592 41.9205 35.2728 41.6826C36.2382 41.431 37.2793 41.262 38.4274 41.3034C39.2858 41.3344 40.2029 41.4844 41.1941 41.805C40.8855 40.7639 39.9616 39.9968 38.8118 39.5555C36.9294 38.5315 35.3073 39.1504 35.0901 39.2417C35.0849 39.2435 35.0781 39.2435 35.0729 39.2452C35.116 39.1986 35.1591 39.1556 35.2022 39.1125C35.8279 38.4867 36.4502 38.0627 37.0656 37.7955C37.0863 37.7869 37.107 37.7782 37.1276 37.7696C37.1518 37.7593 37.1759 37.7507 37.1983 37.7403C39.0979 37.006 40.92 37.7386 42.1215 38.5488C43.7729 39.6589 45.5484 39.9157 46.0397 39.2383C43.928 37.2232 44.1625 36.3147 44.24 35.3787C44.2469 35.4097 44.2538 35.4408 44.2728 35.4684C44.2866 35.4908 44.3004 35.5149 44.3142 35.5373C44.5296 35.889 44.7744 36.1923 45.045 36.4526C45.0468 36.4526 45.0485 36.4544 45.0502 36.4578C45.0795 36.4819 45.1054 36.5078 45.1347 36.5319C45.5019 36.8543 45.9742 37.1628 46.543 37.399C46.6344 37.4369 46.7275 37.4731 46.824 37.5059C46.8705 37.5231 46.9188 37.5386 46.9671 37.5541C46.9757 37.5576 46.9826 37.5593 46.9929 37.561C47.9979 37.8799 48.8271 38.0247 49.8975 38.0144C50.0958 38.0127 50.3026 37.9989 50.5198 37.9799C51.2042 37.8213 51.9178 37.7386 52.6522 37.7386C53.1503 37.7386 53.6399 37.7765 54.1157 37.8524C55.3499 38.042 56.5014 38.4729 57.515 39.09C57.9839 39.3762 58.4252 39.702 58.832 40.064C59.7404 40.8707 61.216 40.2243 61.216 39.0349C61.2143 36.1217 61.2143 33.2085 61.2125 30.2952C61.2125 28.7214 60.473 28.0026 58.8423 28.0026C46.6861 27.9991 34.5299 27.9991 22.3737 28.0026C20.7309 28.0026 20 28.718 20 30.2901V52.1599C20 53.7871 20.7033 54.4629 22.3995 54.4646Z" fill="url(#paint0_linear_2907_533)"/>
<path d="M78.8679 45.9891C78.8748 44.9773 78.6145 44.0878 78.0922 43.25C76.8356 41.2332 75.1842 39.5818 73.3208 38.1338C71.909 37.0357 70.4386 35.9118 68.6424 35.6601C66.9772 35.4274 65.2603 35.5636 63.5658 35.5395C63.533 35.5395 63.5003 35.5877 63.4089 35.6567V36.3755C63.4089 40.9574 63.4124 45.5392 63.4038 50.1211C63.4038 50.6554 63.4055 51.2053 63.2952 51.7242C62.7004 54.5116 60.4871 56.2406 57.5222 56.244C50.2305 56.2509 42.9406 56.2457 35.6489 56.2457H34.999C38.9982 57.299 41.5012 59.7967 42.5493 63.7925C42.6527 63.8029 42.7578 63.8218 42.863 63.8218C47.1001 63.8235 51.3354 63.8184 55.5725 63.8322C55.9621 63.8322 56.0552 63.6718 56.1552 63.3288C57.2429 59.5709 59.6959 57.149 63.5244 56.3922C67.2547 55.6545 70.3765 56.9266 72.7898 59.8743C73.7293 61.0224 74.2775 62.3652 74.6343 63.8235C75.3324 63.8235 75.9978 63.8253 76.6632 63.8235C78.1612 63.8184 78.8541 63.1202 78.8541 61.605C78.8559 56.3991 78.8404 51.195 78.8679 45.9891ZM66.5962 49.6057V40.2644C72.4313 39.5628 75.8341 44.1136 75.7323 49.6057H66.5962Z" fill="url(#paint1_linear_2907_533)"/>
<path d="M33.2663 59.9551C30.1273 59.9396 27.5312 62.4857 27.5036 65.6075C27.4761 68.7603 30.0566 71.3736 33.2111 71.3891C36.3174 71.4046 38.9255 68.8155 38.9462 65.6954C38.9686 62.5805 36.3846 59.9707 33.2663 59.9551Z" fill="url(#paint2_linear_2907_533)"/>
<path d="M65.3569 59.9551C62.1989 59.9413 59.6339 62.4702 59.6219 65.6075C59.6098 68.7999 62.1455 71.3787 65.3052 71.3891C68.4339 71.3994 70.9972 68.8413 71.0144 65.6919C71.0317 62.5408 68.496 59.9689 65.3569 59.9551Z" fill="url(#paint3_linear_2907_533)"/>
<path d="M30.2966 56.2445C26.8783 56.1583 23.4514 56.4445 20.0089 56.0566C20.0089 58.0562 19.9865 60.0955 20.0193 62.133C20.0331 63.0053 20.8105 63.7586 21.6845 63.8068C22.4102 63.8465 23.1411 63.8155 23.9065 63.8155C24.9631 59.7749 27.4937 57.2961 31.4894 56.2859C31.0688 56.2463 30.6827 56.2549 30.2966 56.2445Z" fill="url(#paint4_linear_2907_533)"/>
<path d="M59.2062 46.5598C59.2028 42.8002 56.1654 39.768 52.4093 39.7715C48.6462 39.7732 45.633 42.8019 45.6382 46.5753C45.6434 50.3194 48.6721 53.3378 52.4248 53.3395C56.1551 53.3412 59.2096 50.2866 59.2062 46.5598ZM51.9766 51.8984C49.777 51.8812 47.2224 49.8609 47.0483 46.9873C47.2034 46.9873 47.3585 46.9873 47.5326 46.9873C47.5326 46.6994 47.5326 46.4374 47.5326 46.1513C47.3827 46.1409 47.2293 46.1323 47.0776 46.122C47.0603 43.7535 49.3995 41.2281 51.9835 41.2143C51.9921 41.3591 52.0007 41.5056 52.0093 41.6694C52.2765 41.6694 52.5385 41.6694 52.8264 41.6694C52.835 41.5177 52.8437 41.3643 52.8506 41.2126C55.0518 41.0006 57.8306 43.7552 57.7737 46.1168C57.6151 46.1271 57.4548 46.1375 57.279 46.1478C57.279 46.415 57.279 46.6701 57.279 46.9597C57.4359 46.9666 57.5962 46.9752 57.7582 46.9839C57.7358 49.3317 55.5414 51.795 52.8506 51.9105C52.8419 51.7329 52.835 51.5778 52.8264 51.414C52.5523 51.414 52.2972 51.414 52.018 51.414C52.0059 51.5743 51.9904 51.7364 51.9766 51.8984Z" fill="url(#paint5_linear_2907_533)"/>
<path d="M58.865 52.1839C61.7903 49.2862 62.0282 44.6992 59.3942 41.5032C56.743 38.2866 52.3249 37.8833 49.291 39.745C52.9765 38.1401 56.4965 39.614 58.291 41.8877C60.2871 44.4182 60.4819 47.8641 58.7564 50.5635C57.9031 51.8977 56.7447 52.8786 55.2743 53.4716C53.323 54.2593 51.3716 54.2025 49.4306 53.4147C51.8336 54.9454 55.988 55.0333 58.865 52.1839Z" fill="url(#paint6_linear_2907_533)"/>
<path d="M53.29 46.479C53.1797 46.2014 53.2538 45.9825 53.3365 45.7412C53.4262 45.4792 53.5175 45.2189 53.6054 44.9569C53.8278 44.2967 54.0485 43.6347 54.2708 42.9728C54.2588 42.9676 54.2484 42.9624 54.2363 42.959C54.1984 43.0159 54.1571 43.071 54.1243 43.1296C53.6451 43.9502 53.1641 44.7672 52.6918 45.5929C52.5901 45.7705 52.4781 45.8963 52.2764 45.9756C51.9196 46.1153 51.773 46.5393 51.9178 46.8996C52.054 47.234 52.4522 47.4202 52.8039 47.315C53.1521 47.2099 53.4193 46.8099 53.29 46.479Z" fill="url(#paint7_linear_2907_533)"/>
<path d="M52.2076 42.3438C52.1869 42.3438 52.1662 42.3438 52.1455 42.3438C52.1455 42.592 52.1455 42.8385 52.1455 43.0867C52.1662 43.0867 52.1869 43.0867 52.2076 43.085C52.2076 42.8385 52.2076 42.592 52.2076 42.3438Z" fill="url(#paint8_linear_2907_533)"/>
<path d="M50.058 44.0192C49.8908 43.833 49.7253 43.6452 49.5581 43.459C49.5305 43.4848 49.5012 43.509 49.4736 43.5348C49.6374 43.7227 49.8012 43.9123 49.9649 44.102C49.9959 44.0744 50.027 44.0468 50.058 44.0192Z" fill="url(#paint9_linear_2907_533)"/>
<path d="M54.9863 43.2019C54.9535 43.1743 54.9208 43.1467 54.888 43.1191C54.7243 43.3139 54.5588 43.5087 54.395 43.7035C54.4278 43.7311 54.4622 43.7604 54.495 43.788C54.6605 43.5949 54.8225 43.3984 54.9863 43.2019Z" fill="url(#paint10_linear_2907_533)"/>
<path d="M54.7688 49.0752C54.9326 49.2717 55.0963 49.4665 55.2601 49.663C55.2946 49.6371 55.3273 49.6113 55.3618 49.5854C55.198 49.3889 55.0343 49.1924 54.8705 48.9941C54.8378 49.0217 54.8033 49.0476 54.7688 49.0752Z" fill="url(#paint11_linear_2907_533)"/>
<path d="M51.1523 50.5752C51.1903 50.589 51.2282 50.6028 51.2644 50.6166C51.3506 50.3804 51.435 50.1425 51.5212 49.9064C51.4816 49.8926 51.4419 49.8771 51.4006 49.8633C51.3178 50.1012 51.2351 50.3391 51.1523 50.5752Z" fill="url(#paint12_linear_2907_533)"/>
<path d="M50.687 42.7035C50.7715 42.9396 50.8577 43.1758 50.9421 43.412C50.9818 43.3964 51.0232 43.3827 51.0628 43.3671C50.9766 43.1327 50.8887 42.8965 50.8025 42.6621C50.7646 42.6776 50.7249 42.6897 50.687 42.7035Z" fill="url(#paint13_linear_2907_533)"/>
<path d="M55.9688 44.2777C55.9498 44.245 55.9292 44.2122 55.9102 44.1777C55.6913 44.3036 55.4724 44.4294 55.2517 44.5552C55.2741 44.5932 55.2965 44.6311 55.3189 44.669C55.5361 44.5397 55.7516 44.4087 55.9688 44.2777Z" fill="url(#paint14_linear_2907_533)"/>
<path d="M49.3319 44.986C49.1112 44.8584 48.8923 44.7291 48.6717 44.6016C48.651 44.6378 48.6303 44.6722 48.6096 44.7084C48.8285 44.8377 49.0475 44.9687 49.2664 45.098C49.2888 45.0601 49.3112 45.0222 49.3319 44.986Z" fill="url(#paint15_linear_2907_533)"/>
<path d="M55.7897 45.7635C56.0345 45.7239 56.2793 45.6825 56.5241 45.6428C56.5189 45.6049 56.5154 45.5653 56.5103 45.5273C56.2638 45.5687 56.0173 45.6101 55.7708 45.6515C55.7759 45.6877 55.7828 45.7256 55.7897 45.7635Z" fill="url(#paint16_linear_2907_533)"/>
<path d="M48.9735 46.1356C48.7253 46.0942 48.4788 46.0511 48.2306 46.0098C48.2271 46.0477 48.222 46.0856 48.2185 46.1235C48.465 46.1666 48.7098 46.2114 48.9563 46.2545C48.9615 46.2149 48.9684 46.1752 48.9735 46.1356Z" fill="url(#paint17_linear_2907_533)"/>
<path d="M53.7764 49.7445C53.8608 49.9789 53.9436 50.2134 54.028 50.4478C54.0677 50.4323 54.1073 50.4168 54.1453 50.403C54.0591 50.1703 53.9729 49.9358 53.8884 49.7031C53.8522 49.7152 53.8143 49.729 53.7764 49.7445Z" fill="url(#paint18_linear_2907_533)"/>
<path d="M55.5083 48.1279C55.7255 48.252 55.9427 48.3744 56.1599 48.4985C56.1806 48.4623 56.203 48.4261 56.2237 48.3899C56.0048 48.2658 55.7876 48.1417 55.5686 48.0176C55.5479 48.0555 55.5273 48.0917 55.5083 48.1279Z" fill="url(#paint19_linear_2907_533)"/>
<path d="M49.0272 47.3359C48.7842 47.379 48.5429 47.4239 48.2998 47.4669C48.3067 47.5049 48.3153 47.5445 48.3222 47.5824C48.5653 47.5393 48.8066 47.4945 49.0497 47.4514C49.0428 47.4135 49.0359 47.3756 49.0272 47.3359Z" fill="url(#paint20_linear_2907_533)"/>
<path d="M55.8569 46.9681C56.1 47.0129 56.343 47.0577 56.5861 47.1008C56.593 47.0629 56.5999 47.0233 56.6068 46.9853C56.3637 46.9388 56.119 46.8922 55.8759 46.8457C55.869 46.8871 55.8621 46.9284 55.8569 46.9681Z" fill="url(#paint21_linear_2907_533)"/>
<path d="M53.6831 42.537C53.6452 42.5215 53.6073 42.5077 53.5693 42.4922C53.4832 42.7249 53.3987 42.9593 53.3125 43.192C53.3504 43.2058 53.3883 43.2196 53.4263 43.2334C53.5107 43.0024 53.5969 42.7697 53.6831 42.537Z" fill="url(#paint22_linear_2907_533)"/>
<path d="M49.8459 49.8963C49.8787 49.9239 49.9115 49.9515 49.9425 49.979C50.1045 49.7877 50.2666 49.5963 50.4286 49.405C50.3976 49.3774 50.3648 49.3498 50.3338 49.3223C50.17 49.5136 50.008 49.7049 49.8459 49.8963Z" fill="url(#paint23_linear_2907_533)"/>
<path d="M48.8547 48.82C48.8754 48.8579 48.8978 48.8958 48.9185 48.9337C49.1392 48.8044 49.3598 48.6752 49.5805 48.5459C49.5598 48.5097 49.5391 48.4717 49.5167 48.4355C49.2978 48.5631 49.0754 48.6907 48.8547 48.82Z" fill="url(#paint24_linear_2907_533)"/>
<path d="M52.6331 50.7647C52.652 50.7647 52.6693 50.7629 52.6882 50.7629C52.6882 50.5164 52.6882 50.2699 52.6882 50.0234C52.6693 50.0234 52.652 50.0252 52.6331 50.0252C52.6331 50.2717 52.6331 50.5182 52.6331 50.7647Z" fill="url(#paint25_linear_2907_533)"/>
<defs>
<linearGradient id="paint0_linear_2907_533" x1="63.7826" y1="22.7565" x2="10.967" y2="27.2299" gradientUnits="userSpaceOnUse">
<stop stop-color="#FFC977"/>
<stop offset="1" stop-color="#FFAB99"/>
</linearGradient>
<linearGradient id="paint1_linear_2907_533" x1="81.5999" y1="29.9122" x2="25.3806" y2="34.6499" gradientUnits="userSpaceOnUse">
<stop stop-color="#FFC977"/>
<stop offset="1" stop-color="#FFAB99"/>
</linearGradient>
<linearGradient id="paint2_linear_2907_533" x1="39.6589" y1="57.6896" x2="24.934" y2="58.491" gradientUnits="userSpaceOnUse">
<stop stop-color="#FFC977"/>
<stop offset="1" stop-color="#FFAB99"/>
</linearGradient>
<linearGradient id="paint3_linear_2907_533" x1="71.724" y1="57.6896" x2="57.0633" y2="58.484" gradientUnits="userSpaceOnUse">
<stop stop-color="#FFC977"/>
<stop offset="1" stop-color="#FFAB99"/>
</linearGradient>
<linearGradient id="paint4_linear_2907_533" x1="32.2048" y1="54.5171" x2="17.4734" y2="55.7015" gradientUnits="userSpaceOnUse">
<stop stop-color="#FFC977"/>
<stop offset="1" stop-color="#FFAB99"/>
</linearGradient>
<linearGradient id="paint5_linear_2907_533" x1="60.0511" y1="37.0832" x2="42.5915" y2="38.0327" gradientUnits="userSpaceOnUse">
<stop stop-color="#FFC977"/>
<stop offset="1" stop-color="#FFAB99"/>
</linearGradient>
<linearGradient id="paint6_linear_2907_533" x1="61.9673" y1="35.4949" x2="46.5918" y2="36.1249" gradientUnits="userSpaceOnUse">
<stop stop-color="#FFC977"/>
<stop offset="1" stop-color="#FFAB99"/>
</linearGradient>
<linearGradient id="paint7_linear_2907_533" x1="54.4208" y1="42.0901" x2="51.3154" y2="42.1828" gradientUnits="userSpaceOnUse">
<stop stop-color="#FFC977"/>
<stop offset="1" stop-color="#FFAB99"/>
</linearGradient>
<linearGradient id="paint8_linear_2907_533" x1="52.2114" y1="42.1965" x2="52.1313" y2="42.1969" gradientUnits="userSpaceOnUse">
<stop stop-color="#FFC977"/>
<stop offset="1" stop-color="#FFAB99"/>
</linearGradient>
<linearGradient id="paint9_linear_2907_533" x1="50.0944" y1="43.3316" x2="49.342" y2="43.3688" gradientUnits="userSpaceOnUse">
<stop stop-color="#FFC977"/>
<stop offset="1" stop-color="#FFAB99"/>
</linearGradient>
<linearGradient id="paint10_linear_2907_533" x1="55.0231" y1="42.9866" x2="54.2618" y2="43.0232" gradientUnits="userSpaceOnUse">
<stop stop-color="#FFC977"/>
<stop offset="1" stop-color="#FFAB99"/>
</linearGradient>
<linearGradient id="paint11_linear_2907_533" x1="55.3987" y1="48.8616" x2="54.6352" y2="48.8984" gradientUnits="userSpaceOnUse">
<stop stop-color="#FFC977"/>
<stop offset="1" stop-color="#FFAB99"/>
</linearGradient>
<linearGradient id="paint12_linear_2907_533" x1="51.5442" y1="49.714" x2="51.0684" y2="49.7267" gradientUnits="userSpaceOnUse">
<stop stop-color="#FFC977"/>
<stop offset="1" stop-color="#FFAB99"/>
</linearGradient>
<linearGradient id="paint13_linear_2907_533" x1="51.0862" y1="42.5135" x2="50.6016" y2="42.5267" gradientUnits="userSpaceOnUse">
<stop stop-color="#FFC977"/>
<stop offset="1" stop-color="#FFAB99"/>
</linearGradient>
<linearGradient id="paint14_linear_2907_533" x1="56.0135" y1="44.0804" x2="55.0938" y2="44.1534" gradientUnits="userSpaceOnUse">
<stop stop-color="#FFC977"/>
<stop offset="1" stop-color="#FFAB99"/>
</linearGradient>
<linearGradient id="paint15_linear_2907_533" x1="49.3769" y1="44.5032" x2="48.4505" y2="44.5765" gradientUnits="userSpaceOnUse">
<stop stop-color="#FFC977"/>
<stop offset="1" stop-color="#FFAB99"/>
</linearGradient>
<linearGradient id="paint16_linear_2907_533" x1="56.571" y1="45.4806" x2="55.6271" y2="45.6443" gradientUnits="userSpaceOnUse">
<stop stop-color="#FFC977"/>
<stop offset="1" stop-color="#FFAB99"/>
</linearGradient>
<linearGradient id="paint17_linear_2907_533" x1="49.0205" y1="45.9613" x2="48.0728" y2="46.1203" gradientUnits="userSpaceOnUse">
<stop stop-color="#FFC977"/>
<stop offset="1" stop-color="#FFAB99"/>
</linearGradient>
<linearGradient id="paint18_linear_2907_533" x1="54.1682" y1="49.5556" x2="53.6925" y2="49.5684" gradientUnits="userSpaceOnUse">
<stop stop-color="#FFC977"/>
<stop offset="1" stop-color="#FFAB99"/>
</linearGradient>
<linearGradient id="paint19_linear_2907_533" x1="56.2682" y1="47.9223" x2="55.3509" y2="47.9965" gradientUnits="userSpaceOnUse">
<stop stop-color="#FFC977"/>
<stop offset="1" stop-color="#FFAB99"/>
</linearGradient>
<linearGradient id="paint20_linear_2907_533" x1="49.0964" y1="47.2871" x2="48.1544" y2="47.4429" gradientUnits="userSpaceOnUse">
<stop stop-color="#FFC977"/>
<stop offset="1" stop-color="#FFAB99"/>
</linearGradient>
<linearGradient id="paint21_linear_2907_533" x1="56.6535" y1="46.7952" x2="55.7098" y2="46.946" gradientUnits="userSpaceOnUse">
<stop stop-color="#FFC977"/>
<stop offset="1" stop-color="#FFAB99"/>
</linearGradient>
<linearGradient id="paint22_linear_2907_533" x1="53.7062" y1="42.3453" x2="53.2282" y2="42.3583" gradientUnits="userSpaceOnUse">
<stop stop-color="#FFC977"/>
<stop offset="1" stop-color="#FFAB99"/>
</linearGradient>
<linearGradient id="paint23_linear_2907_533" x1="50.4649" y1="49.1921" x2="49.7146" y2="49.2283" gradientUnits="userSpaceOnUse">
<stop stop-color="#FFC977"/>
<stop offset="1" stop-color="#FFAB99"/>
</linearGradient>
<linearGradient id="paint24_linear_2907_533" x1="49.6256" y1="48.3368" x2="48.6949" y2="48.4106" gradientUnits="userSpaceOnUse">
<stop stop-color="#FFC977"/>
<stop offset="1" stop-color="#FFAB99"/>
</linearGradient>
<linearGradient id="paint25_linear_2907_533" x1="52.6917" y1="49.8766" x2="52.6205" y2="49.8769" gradientUnits="userSpaceOnUse">
<stop stop-color="#FFC977"/>
<stop offset="1" stop-color="#FFAB99"/>
</linearGradient>
</defs>
</svg>
